<?xml version="1.0" encoding="utf-8"?>
<!-- Generator: Adobe Illustrator 16.0.0, SVG Export Plug-In . SVG Version: 6.00 Build 0)  -->
<!DOCTYPE svg PUBLIC "-//W3C//DTD SVG 1.1//EN" "http://www.w3.org/Graphics/SVG/1.1/DTD/svg11.dtd">
<svg version="1.1" id="Layer_1" xmlns="http://www.w3.org/2000/svg" xmlns:xlink="http://www.w3.org/1999/xlink" x="0px" y="0px"
	 width="241.901px" height="61.33px" viewBox="0 19.204 241.901 61.33" enable-background="new 0 19.204 241.901 61.33"
	 xml:space="preserve">
<g id="Layer_x0020_1">
	<path fill="#FFFFFF" d="M37.165,40.234c0,8.903-7.196,16.099-16.099,16.099c-8.903,0-16.099-7.195-16.099-16.099
		s7.196-16.099,16.099-16.099C29.969,24.135,37.165,31.331,37.165,40.234z"/>
	<g id="_319471888">
		<path fill="#FFFFFF" d="M63.292,32.722c-0.199-0.199-0.199-0.598-0.199-0.997c0-0.398,0.199-0.797,0.797-1.195l5.58-4.783
			c0.797-0.797,1.993-0.997,3.388-0.997h3.388c0.598,0,1.196,0.2,1.594,0.599c0.399,0.398,0.598,0.996,0.598,1.594v28.102
			c0,0.598-0.199,0.996-0.598,1.595c-0.398,0.398-0.997,0.598-1.594,0.598h-4.186c-0.598,0-0.996-0.199-1.594-0.598
			c-0.398-0.398-0.598-0.798-0.598-1.396V33.32l-2.591,1.993c-0.398,0.199-0.598,0.199-0.996,0.199
			c-0.399,0-0.797-0.199-0.997-0.598l-1.794-2.192H63.292z M82.823,41.093c0-2.989,0.399-5.58,1.196-7.772
			c0.797-2.192,1.993-3.787,3.587-5.182c2.99-2.392,6.776-3.588,11.36-3.588h1.594c4.783,0,8.569,1.196,11.56,3.588
			c3.188,2.591,4.783,6.776,4.783,12.954c0,5.979-1.595,10.364-4.783,12.955c-2.99,2.392-6.776,3.388-11.56,3.388h-1.594
			c-4.783,0-8.57-1.195-11.36-3.388C84.417,51.457,82.823,47.271,82.823,41.093z M99.963,31.128c-5.78,0-8.57,3.389-8.57,9.965
			c0,6.776,2.79,9.965,8.57,9.965s8.569-3.388,8.569-9.965C108.532,34.316,105.743,31.128,99.963,31.128z M119.693,41.093
			c0-2.989,0.398-5.58,1.196-7.772c0.797-2.192,1.992-3.787,3.587-5.182c2.989-2.392,6.776-3.588,11.361-3.588h1.594
			c4.783,0,8.57,1.196,11.561,3.588c3.188,2.591,4.783,6.776,4.783,12.954c0,5.979-1.596,10.364-4.783,12.955
			c-2.99,2.392-6.777,3.388-11.561,3.388h-1.594c-4.784,0-8.571-1.195-11.361-3.388C121.288,51.457,119.693,47.271,119.693,41.093z
			 M136.833,31.128c-5.78,0-8.571,3.389-8.571,9.965c0,6.776,2.791,9.965,8.571,9.965c5.779,0,8.57-3.388,8.57-9.965
			C145.404,34.316,142.613,31.128,136.833,31.128z M158.558,55.243V27.141c0-0.598,0.199-1.195,0.598-1.594s0.996-0.598,1.395-0.598
			h9.168c0.598,0,1.195,0.199,1.594,0.598c0.598,0.398,0.797,0.996,0.996,1.594l6.777,19.333l6.775-19.333
			c0.199-0.598,0.598-1.195,0.996-1.594c0.6-0.398,0.998-0.598,1.596-0.598h9.168c0.598,0,0.996,0.199,1.395,0.598
			s0.598,0.996,0.598,1.594v28.102c0,0.598-0.199,1.196-0.598,1.595s-0.996,0.598-1.594,0.598h-3.986
			c-0.598,0-0.996-0.199-1.596-0.598c-0.398-0.398-0.598-0.997-0.598-1.595V33.121l-7.971,22.321
			c-0.199,0.598-0.598,0.997-1.197,1.396c-0.598,0.398-0.996,0.598-1.594,0.598h-3.189c-0.598,0-1.195-0.199-1.594-0.598
			c-0.598-0.398-0.797-0.798-1.195-1.396l-7.973-22.321v22.122c0,0.598-0.199,1.196-0.598,1.595s-0.996,0.598-1.594,0.598h-3.986
			c-0.598,0-0.996-0.199-1.594-0.598c-0.4-0.398-0.6-0.997-0.6-1.595H158.558z M206.589,27.141c0-0.598,0.199-1.195,0.598-1.594
			s0.996-0.598,1.594-0.598h18.336c4.584,0,7.771,1.395,9.965,3.985c1.195,1.396,1.793,3.189,1.793,5.581
			c0,2.191-0.996,4.185-2.988,5.779c2.988,1.595,4.385,3.986,4.385,7.175s-1.197,5.779-3.389,7.374
			c-2.393,1.794-5.182,2.591-8.57,2.591h-19.531c-0.598,0-0.996-0.199-1.594-0.598c-0.398-0.398-0.598-0.997-0.598-1.595V27.141z
			 M215.158,51.257h12.955c1.195,0,1.992-0.398,2.592-0.996c0.598-0.598,0.996-1.595,0.996-2.79c0-1.196-0.398-2.192-0.996-2.79
			c-0.6-0.598-1.596-0.997-2.592-0.997h-12.955v7.773V51.257z M215.158,37.506h12.158c0.996,0,1.793-0.199,2.191-0.798
			c0.598-0.598,0.797-1.395,0.797-2.392c0-0.996-0.199-1.793-0.797-2.392c-0.598-0.598-1.395-0.797-2.191-0.797h-12.158V37.506z"/>
		<path fill="#FFFFFF" d="M64.487,76.767h1.395v-9.766l4.385,6.378l0,0l4.385-6.577v9.766h1.395V64.411h-1.395l-4.385,6.577
			l-4.385-6.577h-1.395v12.157V76.767z M151.98,76.767h5.381c2.592,0,4.385-1.195,4.385-3.388l0,0c0-1.595-1.195-2.591-2.59-2.99
			c0.996-0.398,1.992-1.195,1.992-2.79l0,0c0-0.797-0.199-1.395-0.797-1.993c-0.598-0.598-1.793-0.996-3.189-0.996h-5.182V76.767z
			 M153.375,69.991v-4.185h3.588c1.795,0,2.592,0.797,2.592,1.992l0,0c0,1.396-1.197,2.192-2.791,2.192h-3.588H153.375z
			 M153.375,75.572v-4.186h3.787c2.193,0,3.189,0.797,3.189,1.993l0,0c0,1.395-1.195,2.192-2.99,2.192H153.375z M79.634,76.767
			h1.395l1.395-3.188h6.577l1.395,3.188h1.395L86.211,64.61h-1.196l-5.58,12.157H79.634z M83.022,72.383l2.79-6.178l2.79,6.178
			H83.022z M99.166,76.967c2.392,0,4.186-1.395,4.186-3.388l0,0c0-1.794-1.196-2.79-3.986-3.389
			c-2.591-0.598-3.188-1.195-3.188-2.392l0,0c0-0.996,0.996-1.992,2.591-1.992c1.196,0,2.392,0.398,3.587,1.395l0.797-0.996
			c-1.196-0.997-2.591-1.396-4.185-1.396c-2.392,0-3.986,1.396-3.986,3.389l0,0c0,1.992,1.196,2.989,3.986,3.587
			c2.591,0.598,3.189,1.196,3.189,2.392l0,0c0,1.196-0.997,1.993-2.791,1.993c-1.594,0-2.989-0.598-4.185-1.794l-0.797,0.997
			c1.395,1.395,2.99,1.992,4.982,1.992L99.166,76.967z M109.928,76.767h1.396V66.006h3.985v-1.196h-9.566v1.196h3.986v10.762
			H109.928z M118.896,76.767h8.769v-1.195h-7.573v-4.186h6.577V70.19h-6.577v-4.185h7.374v-1.196h-8.77v12.157L118.896,76.767z
			 M131.452,76.767h1.395v-4.783h3.389l3.588,4.783h1.594l-3.787-4.982c1.994-0.398,3.389-1.595,3.389-3.587l0,0
			c0-0.997-0.398-1.794-0.996-2.392c-0.799-0.798-1.994-1.196-3.389-1.196h-5.182V76.767z M132.847,70.789v-4.982h3.788
			c1.992,0,3.189,0.996,3.189,2.392l0,0c0,1.594-1.396,2.591-3.189,2.591H132.847z M165.333,76.767h8.172v-1.195h-6.777V64.809
			h-1.395v12.157V76.767z M176.095,76.767h1.395l1.396-3.188h6.576l1.395,3.188h1.396l-5.58-12.157h-1.197l-5.58,12.157H176.095z
			 M179.484,72.383l2.789-6.178l2.791,6.178H179.484z M195.626,76.967c2.393,0,4.186-1.395,4.186-3.388l0,0
			c0-1.794-1.195-2.79-3.986-3.389c-2.59-0.598-3.188-1.195-3.188-2.392l0,0c0-0.996,0.996-1.992,2.59-1.992
			c1.195,0,2.393,0.398,3.588,1.395l0.797-0.996c-1.195-0.997-2.59-1.396-4.186-1.396c-2.391,0-3.986,1.396-3.986,3.389l0,0
			c0,1.992,1.197,2.989,3.986,3.587c2.592,0.598,3.189,1.196,3.189,2.392l0,0c0,1.196-0.996,1.993-2.791,1.993
			c-1.594,0-2.988-0.598-4.186-1.794l-0.797,0.997c1.396,1.395,2.99,1.992,4.982,1.992L195.626,76.967z M206.39,76.767h1.395V66.006
			h3.986v-1.196h-9.566v1.196h3.984v10.762H206.39z M215.357,76.767h8.77v-1.195h-7.572v-4.186h6.576V70.19h-6.576v-4.185h7.373
			v-1.196h-8.77v12.157L215.357,76.767z M227.914,76.767h1.395v-4.783h3.389l3.588,4.783h1.594l-3.787-4.982
			c1.994-0.398,3.389-1.595,3.389-3.587l0,0c0-0.997-0.398-1.794-0.996-2.392c-0.797-0.798-1.994-1.196-3.389-1.196h-5.182V76.767z
			 M229.308,70.789v-4.982h3.787c1.994,0,3.189,0.996,3.189,2.392l0,0c0,1.594-1.396,2.591-3.189,2.591H229.308z"/>
	</g>
	<path fill="#FFFFFF" d="M21.066,80.359c0.488,0,0.976-0.487,1.097-0.976c0.122-0.488,0.244-0.976,0.366-1.342
		c0.122-0.487,0.244-0.854,0.244-1.22c2.074-7.317,5.61-11.22,10.855-18.294c2.073-2.927,4.146-5.732,5.854-8.781
		c3.049-5.488,3.415-11.952,1.097-17.684c-2.317-5.732-7.073-10.001-13.049-11.708c-2.073-0.61-4.269-0.976-6.464-0.976
		c-2.317,0-4.513,0.244-6.464,0.976c-5.976,1.829-10.611,6.098-13.05,11.708c-2.439,5.732-1.951,12.196,1.098,17.684
		c1.708,3.049,3.781,5.854,5.854,8.781c5.244,7.074,8.781,10.977,10.854,18.294c0.122,0.366,0.244,0.854,0.244,1.22
		c0.122,0.488,0.244,0.976,0.365,1.342C20.09,79.872,20.578,80.359,21.066,80.359z M21.066,20.598h0.122l0,0
		c2.074,0,4.147,0.244,5.976,0.854c5.489,1.708,10.001,5.732,12.196,10.976c2.195,5.367,1.829,11.464-0.976,16.587
		c-1.585,2.927-3.659,5.731-5.731,8.659c-5.367,7.195-8.904,11.22-10.977,18.781c-0.122,0.488-0.244,0.854-0.366,1.342
		c-0.122,0.244-0.122,0.61-0.244,0.854l0,0l0,0c-0.122-0.244-0.122-0.61-0.244-0.854c-0.122-0.365-0.244-0.854-0.366-1.342
		c-2.073-7.439-5.732-11.586-10.977-18.781c-2.073-2.806-4.146-5.61-5.732-8.659c-2.805-5.123-3.17-11.22-0.976-16.587
		c2.195-5.366,6.586-9.269,12.196-10.976c1.83-0.61,3.903-0.854,5.976-0.854l0,0H21.066z"/>
	<path fill="#0856C9" d="M25.09,51.455L25.09,51.455c-0.488-0.61-0.854-1.342-0.976-2.074c0,0.122,0,0.122,0,0.244
		c0.122,0.609,0.488,1.341,0.854,1.83l0.122,0.121V51.455z M24.725,48.893c-0.122,0.488,0.732,2.318,1.098,2.318
		C25.212,50.479,24.847,49.747,24.725,48.893z M23.871,49.869c-0.123,0.61,0.244,1.22,0.609,1.342
		C24.237,50.722,23.993,50.235,23.871,49.869z M25.09,48.893c0,0,0,0,0,0.123c0.122,0.731,0.488,1.341,0.854,1.951
		c0.123,0.122,0.244,0.122,0.244,0c0.244-0.365,0.244-0.732,0.244-1.098C26.188,49.137,25.457,48.771,25.09,48.893z M26.798,50.235
		c0,0.854-0.731,1.585-1.585,1.585c-0.976,0-1.585-0.731-1.708-1.585c0-0.854,0.732-1.585,1.585-1.585s1.585,0.732,1.585,1.585
		H26.798z M14.236,51.698h-1.463c0-0.122,0-9.391,0-9.391c0-3.049,0-5.976,0-9.025c0-0.122,0-0.366,0.122-0.488
		c0.122-0.244,0.244-0.366,0.488-0.366c0.122,0,0.122,0,0.244,0c0.487,0,0.731,0.244,0.731,0.732c0,3.049,0,6.098,0,9.147v9.269
		L14.236,51.698z M19.846,51.698v-9.391c0-3.049,0-5.976,0-9.025c0-0.122,0-0.244,0-0.366c0.122-0.245,0.244-0.366,0.61-0.366h0.122
		c0.609,0,0.854,0.244,0.854,0.854v8.903v9.391H19.846z M16.188,51.698v-9.391c0-3.049,0-5.976,0-9.025c0-0.122,0-0.244,0-0.366
		c0.122-0.245,0.244-0.366,0.61-0.366c0.731-0.122,0.976,0.366,0.976,0.854c0,2.927,0,5.854,0,8.781v9.513h-1.464H16.188z
		 M18.626,32.428c-0.366,0-0.732,0-0.976,0s-0.244,0-0.244-0.244c0-0.244,0-0.366,0-0.61c0-0.122,0.122-0.244,0.244-0.244
		c0.732,0,1.463,0,2.195,0c0.122,0,0.244,0.123,0.244,0.244c0,0.244,0,0.366,0,0.61c0,0.122-0.122,0.244-0.244,0.244
		c-0.366,0-0.732,0-1.098,0H18.626z M15.09,32.428c-0.366,0-0.732,0-0.976,0c-0.244,0-0.244,0-0.244-0.244c0-0.244,0-0.366,0-0.61
		c0-0.122,0.122-0.244,0.244-0.244c0.732,0,1.464,0,2.074,0c0.122,0,0.244,0.123,0.244,0.244c0,0.244,0,0.366,0,0.61
		c0,0.122-0.122,0.244-0.244,0.244C15.822,32.428,15.456,32.428,15.09,32.428z M20.09,32.063v-0.488c0.122,0,0.366,0,0.488,0
		c0.122,0,0.244,0.122,0.244,0.244c0,0.122-0.122,0.244-0.244,0.244C20.456,32.063,20.212,32.063,20.09,32.063z M13.626,31.575
		v0.488c-0.123,0-0.366,0-0.488,0c-0.122,0-0.244-0.122-0.244-0.244c0-0.122,0.122-0.244,0.244-0.244
		C13.26,31.575,13.504,31.575,13.626,31.575z M17.163,31.941h-0.488v-0.366h0.488V31.941z M33.018,49.625
		c0-0.122-0.122-0.244-0.122-0.366c-0.732-1.464-1.463-2.805-2.195-4.269c-0.976-1.829-1.83-3.659-2.805-5.488
		c-0.244-0.488-0.488-0.854-0.732-1.341c-0.731-1.342-1.341-2.684-2.073-4.025c-0.122-0.244-0.244-0.488-0.366-0.731l0,0
		c-0.122,0-0.244,0.122-0.366,0.122c-0.61,0.122-1.097-0.122-1.341-0.732c-0.61-1.097-1.098-2.195-1.708-3.293
		c-0.488-0.975-0.976-1.829-1.463-2.805c-0.122-0.244-0.366-0.365-0.61-0.244c-0.122,0.122-0.244,0.122-0.366,0.244
		c-0.244,0.122-0.244,0.367-0.122,0.61c0.732,1.463,1.463,2.805,2.195,4.269c0.366,0.61,0.61,1.219,0.854,1.83
		c0.122,0.244,0.244,0.609,0.122,0.976c0,0.244-0.122,0.366-0.366,0.61c-0.122,0.122-0.244,0.244-0.244,0.244
		c0.122,0.244,0.122,0.366,0.244,0.61c0.122,0.244,0.244,0.366,0.244,0.609c0.366,0.609,0.61,1.22,0.854,1.829
		c0.731,1.342,1.463,2.805,2.073,4.147c0.61,1.098,1.098,2.195,1.708,3.292c0.854,1.585,1.585,3.171,2.439,4.757
		c0.122,0.243,0.244,0.487,0.366,0.854c0,0,0,0.122,0.122,0.122c0.244,0.121,0.488,0.121,0.732,0c0.244,0,0.366-0.122,0.488-0.122
		c0.488-0.244,0.976-0.488,1.464-0.731c0.244-0.245,0.487-0.367,0.731-0.61v-0.122L33.018,49.625z"/>
</g>
</svg>
